<?xml version="1.0" encoding="UTF-8"?>
<svg xmlns="http://www.w3.org/2000/svg" version="1.1" width="300" height="300" viewBox="0 0 300 300"><rect x="0" y="0" width="300" height="300" fill="#ffffff"/><g transform="scale(8.108)"><g transform="translate(0,0)"><path fill-rule="evenodd" d="M9 0L9 1L8 1L8 2L9 2L9 3L8 3L8 4L10 4L10 7L11 7L11 4L12 4L12 5L13 5L13 6L12 6L12 9L13 9L13 8L14 8L14 9L15 9L15 8L16 8L16 9L19 9L19 10L20 10L20 11L19 11L19 12L20 12L20 11L21 11L21 12L23 12L23 11L22 11L22 9L23 9L23 10L25 10L25 11L28 11L28 12L24 12L24 13L18 13L18 12L17 12L17 11L18 11L18 10L17 10L17 11L16 11L16 10L15 10L15 11L14 11L14 12L15 12L15 13L12 13L12 11L13 11L13 10L11 10L11 11L10 11L10 9L11 9L11 8L6 8L6 9L5 9L5 8L0 8L0 9L1 9L1 11L0 11L0 16L1 16L1 17L2 17L2 15L3 15L3 16L4 16L4 17L3 17L3 18L2 18L2 19L4 19L4 17L5 17L5 16L4 16L4 15L8 15L8 14L9 14L9 16L6 16L6 17L10 17L10 18L9 18L9 19L10 19L10 18L11 18L11 20L9 20L9 21L7 21L7 20L5 20L5 21L4 21L4 20L3 20L3 21L2 21L2 20L0 20L0 21L1 21L1 22L0 22L0 29L1 29L1 26L3 26L3 27L2 27L2 29L5 29L5 26L3 26L3 25L7 25L7 24L6 24L6 23L8 23L8 24L10 24L10 26L9 26L9 25L8 25L8 28L6 28L6 29L8 29L8 31L10 31L10 30L11 30L11 29L12 29L12 30L13 30L13 31L12 31L12 33L13 33L13 32L14 32L14 33L18 33L18 34L15 34L15 35L14 35L14 36L15 36L15 37L19 37L19 36L20 36L20 37L21 37L21 36L24 36L24 35L25 35L25 33L28 33L28 34L26 34L26 36L25 36L25 37L27 37L27 36L29 36L29 37L30 37L30 35L28 35L28 34L31 34L31 36L32 36L32 34L33 34L33 35L34 35L34 34L35 34L35 35L36 35L36 36L33 36L33 37L37 37L37 30L35 30L35 28L32 28L32 27L31 27L31 26L32 26L32 25L33 25L33 27L36 27L36 28L37 28L37 26L36 26L36 25L37 25L37 22L36 22L36 21L37 21L37 18L36 18L36 17L37 17L37 14L36 14L36 13L37 13L37 12L36 12L36 11L37 11L37 10L36 10L36 8L35 8L35 9L34 9L34 8L33 8L33 12L32 12L32 13L31 13L31 12L30 12L30 13L31 13L31 15L30 15L30 14L29 14L29 13L28 13L28 12L29 12L29 11L30 11L30 10L29 10L29 9L30 9L30 8L27 8L27 6L28 6L28 7L29 7L29 6L28 6L28 5L29 5L29 4L28 4L28 5L26 5L26 3L27 3L27 2L28 2L28 3L29 3L29 0L28 0L28 1L27 1L27 2L26 2L26 0L21 0L21 1L20 1L20 0L19 0L19 1L18 1L18 0L15 0L15 1L18 1L18 3L17 3L17 2L16 2L16 3L17 3L17 4L19 4L19 5L20 5L20 3L24 3L24 2L23 2L23 1L25 1L25 2L26 2L26 3L25 3L25 4L21 4L21 6L20 6L20 7L19 7L19 6L18 6L18 5L16 5L16 4L12 4L12 2L13 2L13 1L11 1L11 2L10 2L10 0ZM19 1L19 3L20 3L20 1ZM21 1L21 2L22 2L22 1ZM14 2L14 3L15 3L15 2ZM10 3L10 4L11 4L11 3ZM8 5L8 7L9 7L9 5ZM22 5L22 6L21 6L21 7L20 7L20 8L19 8L19 7L18 7L18 6L17 6L17 7L16 7L16 6L15 6L15 7L14 7L14 6L13 6L13 7L14 7L14 8L15 8L15 7L16 7L16 8L19 8L19 9L22 9L22 8L21 8L21 7L22 7L22 6L23 6L23 7L24 7L24 8L26 8L26 5ZM24 6L24 7L25 7L25 6ZM31 8L31 11L32 11L32 8ZM2 9L2 10L3 10L3 9ZM6 9L6 10L5 10L5 11L4 11L4 12L5 12L5 13L2 13L2 12L3 12L3 11L2 11L2 12L1 12L1 13L2 13L2 14L5 14L5 13L6 13L6 14L8 14L8 13L9 13L9 12L8 12L8 13L6 13L6 12L7 12L7 11L8 11L8 9ZM25 9L25 10L28 10L28 9ZM6 10L6 11L7 11L7 10ZM35 10L35 11L34 11L34 12L35 12L35 13L36 13L36 12L35 12L35 11L36 11L36 10ZM10 12L10 14L11 14L11 18L13 18L13 19L12 19L12 21L9 21L9 22L8 22L8 23L9 23L9 22L11 22L11 26L10 26L10 27L9 27L9 29L10 29L10 28L11 28L11 26L13 26L13 27L12 27L12 29L15 29L15 30L16 30L16 29L17 29L17 30L18 30L18 31L14 31L14 32L18 32L18 33L20 33L20 34L18 34L18 35L16 35L16 36L18 36L18 35L20 35L20 34L21 34L21 33L23 33L23 32L21 32L21 31L20 31L20 30L19 30L19 29L21 29L21 30L23 30L23 31L24 31L24 32L28 32L28 30L27 30L27 29L25 29L25 28L27 28L27 27L24 27L24 26L25 26L25 25L24 25L24 23L25 23L25 24L26 24L26 26L28 26L28 25L29 25L29 24L31 24L31 25L30 25L30 26L31 26L31 25L32 25L32 24L33 24L33 25L34 25L34 26L35 26L35 25L34 25L34 24L36 24L36 23L35 23L35 21L34 21L34 20L36 20L36 19L34 19L34 17L32 17L32 16L33 16L33 15L34 15L34 16L35 16L35 17L36 17L36 15L34 15L34 13L32 13L32 16L31 16L31 17L30 17L30 18L31 18L31 17L32 17L32 19L33 19L33 21L32 21L32 20L31 20L31 21L29 21L29 20L28 20L28 19L29 19L29 18L28 18L28 17L29 17L29 16L28 16L28 15L29 15L29 14L28 14L28 13L27 13L27 14L26 14L26 13L24 13L24 14L21 14L21 15L20 15L20 14L18 14L18 13L15 13L15 14L16 14L16 15L14 15L14 16L13 16L13 17L12 17L12 15L13 15L13 14L12 14L12 13L11 13L11 12ZM24 14L24 15L26 15L26 14ZM27 14L27 15L28 15L28 14ZM19 15L19 16L17 16L17 17L16 17L16 16L14 16L14 17L16 17L16 18L15 18L15 19L14 19L14 20L16 20L16 21L19 21L19 22L18 22L18 24L17 24L17 23L16 23L16 22L15 22L15 21L12 21L12 22L13 22L13 23L12 23L12 25L13 25L13 24L14 24L14 25L18 25L18 27L19 27L19 26L20 26L20 28L22 28L22 27L23 27L23 26L24 26L24 25L21 25L21 26L20 26L20 24L23 24L23 23L21 23L21 22L24 22L24 21L27 21L27 19L28 19L28 18L26 18L26 20L25 20L25 18L24 18L24 17L27 17L27 16L23 16L23 15L21 15L21 16L23 16L23 17L19 17L19 16L20 16L20 15ZM6 18L6 19L7 19L7 18ZM16 18L16 20L19 20L19 21L20 21L20 22L19 22L19 24L18 24L18 25L19 25L19 24L20 24L20 22L21 22L21 21L24 21L24 20L21 20L21 21L20 21L20 19L24 19L24 18ZM6 21L6 22L4 22L4 24L5 24L5 23L6 23L6 22L7 22L7 21ZM33 21L33 23L34 23L34 21ZM2 22L2 23L1 23L1 24L2 24L2 25L3 25L3 24L2 24L2 23L3 23L3 22ZM26 22L26 24L29 24L29 23L30 23L30 22L29 22L29 23L28 23L28 22ZM31 22L31 24L32 24L32 22ZM14 23L14 24L15 24L15 23ZM6 26L6 27L7 27L7 26ZM15 26L15 27L14 27L14 28L15 28L15 29L16 29L16 28L15 28L15 27L16 27L16 26ZM21 26L21 27L22 27L22 26ZM3 27L3 28L4 28L4 27ZM28 27L28 28L31 28L31 27ZM17 28L17 29L19 29L19 28ZM23 29L23 30L24 30L24 29ZM29 29L29 32L32 32L32 29ZM33 29L33 32L35 32L35 31L34 31L34 29ZM26 30L26 31L27 31L27 30ZM30 30L30 31L31 31L31 30ZM18 31L18 32L19 32L19 31ZM8 32L8 37L12 37L12 35L13 35L13 34L10 34L10 33L11 33L11 32L10 32L10 33L9 33L9 32ZM20 32L20 33L21 33L21 32ZM33 33L33 34L34 34L34 33ZM22 34L22 35L24 35L24 34ZM9 35L9 36L11 36L11 35ZM0 0L0 7L7 7L7 0ZM1 1L1 6L6 6L6 1ZM2 2L2 5L5 5L5 2ZM30 0L30 7L37 7L37 0ZM31 1L31 6L36 6L36 1ZM32 2L32 5L35 5L35 2ZM0 30L0 37L7 37L7 30ZM1 31L1 36L6 36L6 31ZM2 32L2 35L5 35L5 32Z" fill="#000000"/></g></g></svg>
