<?xml version="1.0" encoding="UTF-8"?>
<svg xmlns="http://www.w3.org/2000/svg" version="1.1" width="300" height="300" viewBox="0 0 300 300"><rect x="0" y="0" width="300" height="300" fill="#ffffff"/><g transform="scale(8.108)"><g transform="translate(0,0)"><path fill-rule="evenodd" d="M9 0L9 1L8 1L8 2L9 2L9 3L8 3L8 4L10 4L10 7L11 7L11 4L12 4L12 5L13 5L13 6L12 6L12 9L13 9L13 8L14 8L14 9L18 9L18 10L20 10L20 11L21 11L21 12L22 12L22 13L19 13L19 12L17 12L17 13L16 13L16 12L15 12L15 11L17 11L17 10L15 10L15 11L14 11L14 12L15 12L15 13L12 13L12 11L13 11L13 10L11 10L11 13L12 13L12 14L13 14L13 15L12 15L12 17L13 17L13 16L14 16L14 17L17 17L17 18L21 18L21 19L20 19L20 21L19 21L19 20L17 20L17 19L16 19L16 18L15 18L15 19L14 19L14 20L15 20L15 21L12 21L12 19L13 19L13 18L11 18L11 20L9 20L9 19L10 19L10 15L11 15L11 14L10 14L10 13L9 13L9 11L10 11L10 9L11 9L11 8L6 8L6 9L5 9L5 8L0 8L0 9L1 9L1 10L0 10L0 15L1 15L1 16L0 16L0 21L1 21L1 22L2 22L2 23L1 23L1 25L0 25L0 29L1 29L1 25L2 25L2 23L3 23L3 24L5 24L5 25L4 25L4 27L3 27L3 29L4 29L4 28L6 28L6 29L8 29L8 31L9 31L9 32L8 32L8 37L9 37L9 36L11 36L11 37L12 37L12 35L13 35L13 34L10 34L10 35L9 35L9 33L10 33L10 32L11 32L11 31L10 31L10 30L11 30L11 29L12 29L12 30L13 30L13 31L12 31L12 33L13 33L13 32L14 32L14 33L19 33L19 34L17 34L17 35L19 35L19 34L22 34L22 35L20 35L20 37L21 37L21 36L22 36L22 35L23 35L23 36L24 36L24 35L25 35L25 33L28 33L28 34L26 34L26 36L25 36L25 37L27 37L27 36L29 36L29 37L30 37L30 35L28 35L28 34L31 34L31 36L32 36L32 34L33 34L33 35L34 35L34 34L35 34L35 35L36 35L36 36L33 36L33 37L37 37L37 30L35 30L35 28L32 28L32 27L31 27L31 26L32 26L32 25L33 25L33 27L36 27L36 28L37 28L37 26L36 26L36 25L37 25L37 22L36 22L36 21L37 21L37 18L36 18L36 17L37 17L37 14L36 14L36 13L37 13L37 12L36 12L36 11L37 11L37 10L36 10L36 8L35 8L35 9L34 9L34 8L33 8L33 12L32 12L32 13L31 13L31 12L30 12L30 13L31 13L31 15L30 15L30 14L29 14L29 13L28 13L28 12L29 12L29 11L30 11L30 10L29 10L29 9L30 9L30 8L27 8L27 6L28 6L28 7L29 7L29 6L28 6L28 5L29 5L29 4L28 4L28 5L26 5L26 3L27 3L27 2L28 2L28 3L29 3L29 0L28 0L28 1L27 1L27 2L26 2L26 0L18 0L18 1L17 1L17 0L15 0L15 1L17 1L17 2L16 2L16 3L17 3L17 4L19 4L19 5L16 5L16 4L12 4L12 2L13 2L13 1L11 1L11 2L10 2L10 0ZM19 1L19 3L20 3L20 5L19 5L19 7L18 7L18 6L17 6L17 7L16 7L16 6L15 6L15 7L14 7L14 6L13 6L13 7L14 7L14 8L15 8L15 7L16 7L16 8L18 8L18 9L20 9L20 10L22 10L22 12L23 12L23 13L22 13L22 14L23 14L23 15L22 15L22 16L20 16L20 15L21 15L21 14L19 14L19 13L17 13L17 14L19 14L19 17L22 17L22 18L23 18L23 19L24 19L24 18L25 18L25 20L26 20L26 18L28 18L28 19L27 19L27 21L24 21L24 20L21 20L21 21L20 21L20 22L19 22L19 21L18 21L18 22L17 22L17 21L15 21L15 22L17 22L17 24L16 24L16 25L14 25L14 24L15 24L15 23L14 23L14 24L13 24L13 25L12 25L12 23L13 23L13 22L12 22L12 21L9 21L9 20L8 20L8 22L9 22L9 23L6 23L6 22L7 22L7 21L6 21L6 20L7 20L7 19L8 19L8 18L9 18L9 16L8 16L8 15L10 15L10 14L8 14L8 15L4 15L4 13L3 13L3 12L2 12L2 13L3 13L3 16L4 16L4 17L6 17L6 18L4 18L4 19L6 19L6 20L4 20L4 21L5 21L5 22L4 22L4 23L6 23L6 24L9 24L9 23L11 23L11 24L10 24L10 26L13 26L13 27L12 27L12 29L15 29L15 30L16 30L16 29L17 29L17 32L19 32L19 33L22 33L22 34L23 34L23 35L24 35L24 34L23 34L23 33L22 33L22 32L21 32L21 30L23 30L23 31L24 31L24 32L28 32L28 30L27 30L27 29L25 29L25 28L27 28L27 27L24 27L24 26L25 26L25 25L24 25L24 23L25 23L25 24L26 24L26 26L28 26L28 25L29 25L29 24L31 24L31 25L30 25L30 26L31 26L31 25L32 25L32 24L33 24L33 25L34 25L34 26L35 26L35 25L34 25L34 24L36 24L36 23L35 23L35 21L34 21L34 20L36 20L36 19L34 19L34 17L32 17L32 16L33 16L33 15L34 15L34 16L35 16L35 17L36 17L36 15L34 15L34 13L32 13L32 16L31 16L31 17L30 17L30 18L31 18L31 17L32 17L32 19L33 19L33 21L32 21L32 20L31 20L31 21L29 21L29 20L28 20L28 19L29 19L29 18L28 18L28 17L29 17L29 16L28 16L28 15L29 15L29 14L28 14L28 13L27 13L27 14L26 14L26 13L24 13L24 12L28 12L28 11L25 11L25 10L28 10L28 9L25 9L25 10L22 10L22 9L23 9L23 8L21 8L21 7L22 7L22 6L23 6L23 7L24 7L24 8L26 8L26 5L23 5L23 4L25 4L25 3L26 3L26 2L25 2L25 1L23 1L23 2L22 2L22 3L20 3L20 1ZM14 2L14 3L15 3L15 2ZM17 2L17 3L18 3L18 2ZM23 2L23 3L22 3L22 4L21 4L21 6L20 6L20 7L19 7L19 8L20 8L20 9L21 9L21 8L20 8L20 7L21 7L21 6L22 6L22 4L23 4L23 3L24 3L24 2ZM10 3L10 4L11 4L11 3ZM8 5L8 7L9 7L9 5ZM24 6L24 7L25 7L25 6ZM31 8L31 11L32 11L32 8ZM3 9L3 11L4 11L4 12L5 12L5 14L7 14L7 13L8 13L8 10L7 10L7 9L6 9L6 10L5 10L5 9ZM1 10L1 11L2 11L2 10ZM4 10L4 11L5 11L5 12L6 12L6 13L7 13L7 12L6 12L6 11L7 11L7 10L6 10L6 11L5 11L5 10ZM35 10L35 11L34 11L34 12L35 12L35 13L36 13L36 12L35 12L35 11L36 11L36 10ZM15 13L15 14L16 14L16 13ZM23 13L23 14L24 14L24 15L26 15L26 14L24 14L24 13ZM27 14L27 15L28 15L28 14ZM14 15L14 16L16 16L16 15ZM17 15L17 16L18 16L18 15ZM1 16L1 17L2 17L2 16ZM6 16L6 17L7 17L7 16ZM22 16L22 17L23 17L23 18L24 18L24 17L27 17L27 16ZM1 18L1 21L3 21L3 20L2 20L2 19L3 19L3 18ZM6 18L6 19L7 19L7 18ZM22 21L22 22L20 22L20 24L19 24L19 22L18 22L18 24L17 24L17 25L16 25L16 26L15 26L15 27L14 27L14 28L15 28L15 29L16 29L16 28L17 28L17 29L19 29L19 30L21 30L21 29L19 29L19 28L22 28L22 27L23 27L23 26L24 26L24 25L21 25L21 26L22 26L22 27L19 27L19 26L20 26L20 24L22 24L22 22L24 22L24 21ZM33 21L33 23L34 23L34 21ZM26 22L26 24L29 24L29 23L30 23L30 22L29 22L29 23L28 23L28 22ZM31 22L31 24L32 24L32 22ZM6 25L6 26L5 26L5 27L6 27L6 28L7 28L7 27L6 27L6 26L9 26L9 25ZM18 25L18 26L16 26L16 27L15 27L15 28L16 28L16 27L17 27L17 28L18 28L18 26L19 26L19 25ZM10 27L10 28L11 28L11 27ZM28 27L28 28L31 28L31 27ZM9 29L9 30L10 30L10 29ZM23 29L23 30L24 30L24 29ZM29 29L29 32L32 32L32 29ZM33 29L33 32L35 32L35 31L34 31L34 29ZM26 30L26 31L27 31L27 30ZM30 30L30 31L31 31L31 30ZM14 31L14 32L15 32L15 31ZM19 31L19 32L20 32L20 31ZM33 33L33 34L34 34L34 33ZM15 34L15 35L14 35L14 36L16 36L16 37L19 37L19 36L16 36L16 34ZM0 0L0 7L7 7L7 0ZM1 1L1 6L6 6L6 1ZM2 2L2 5L5 5L5 2ZM30 0L30 7L37 7L37 0ZM31 1L31 6L36 6L36 1ZM32 2L32 5L35 5L35 2ZM0 30L0 37L7 37L7 30ZM1 31L1 36L6 36L6 31ZM2 32L2 35L5 35L5 32Z" fill="#000000"/></g></g></svg>
